<svg width="17" height="17" viewBox="0 0 17 17" fill="none" xmlns="http://www.w3.org/2000/svg">
<path d="M10.0475 8.95054L16.6795 2.31854C16.8105 2.1655 16.879 1.96864 16.8712 1.7673C16.8635 1.56596 16.78 1.37496 16.6375 1.23249C16.495 1.09001 16.304 1.00655 16.1027 0.99877C15.9014 0.990993 15.7045 1.05948 15.5515 1.19054L8.91946 7.82254L2.28746 1.18254C2.13682 1.0319 1.9325 0.947266 1.71946 0.947266C1.50642 0.947266 1.3021 1.0319 1.15146 1.18254C1.00082 1.33318 0.916188 1.5375 0.916188 1.75054C0.916188 1.96358 1.00082 2.1679 1.15146 2.31854L7.79146 8.95054L1.15146 15.5825C1.06772 15.6543 0.999699 15.7425 0.951681 15.8418C0.903662 15.941 0.876678 16.0491 0.872422 16.1593C0.868167 16.2695 0.886731 16.3793 0.926951 16.482C0.96717 16.5847 1.02818 16.6779 1.10614 16.7559C1.1841 16.8338 1.27734 16.8948 1.38 16.935C1.48266 16.9753 1.59253 16.9938 1.7027 16.9896C1.81288 16.9853 1.92099 16.9583 2.02024 16.9103C2.11949 16.8623 2.20774 16.7943 2.27946 16.7105L8.91946 10.0785L15.5515 16.7105C15.7045 16.8416 15.9014 16.9101 16.1027 16.9023C16.304 16.8945 16.495 16.8111 16.6375 16.6686C16.78 16.5261 16.8635 16.3351 16.8712 16.1338C16.879 15.9324 16.8105 15.7356 16.6795 15.5825L10.0475 8.95054Z" fill="#999999"/>
</svg>
