<svg width="18" height="17" viewBox="0 0 18 17" fill="none" xmlns="http://www.w3.org/2000/svg">
<path d="M14.4061 12.9848C14.5359 13.116 14.7069 13.1816 14.8779 13.1816C15.0468 13.1816 15.2157 13.1176 15.3452 12.9894L17.0775 11.274C17.4576 10.897 17.667 10.3953 17.667 9.86133C17.667 9.32838 17.4584 8.82762 17.0797 8.45079L15.3829 6.73778C15.1248 6.4772 14.7043 6.47517 14.4438 6.73329C14.1832 6.99138 14.1812 7.41183 14.4393 7.67241L15.9497 9.19727H10.5947C10.228 9.19727 9.93066 9.49457 9.93066 9.86133C9.93066 10.2281 10.228 10.5254 10.5947 10.5254H15.946L14.4107 12.0457C14.1501 12.3038 14.148 12.7242 14.4061 12.9848Z" fill="#999999"/>
<path d="M15.0107 1.32812H14.1475V0.664062C14.1475 0.297301 13.8502 0 13.4834 0C13.1166 0 12.8193 0.297301 12.8193 0.664062V1.32812H9.79785V0.664062C9.79785 0.297301 9.50055 0 9.13379 0C8.76703 0 8.46973 0.297301 8.46973 0.664062V1.32812H5.48145V0.664062C5.48145 0.297301 5.18414 0 4.81738 0C4.45062 0 4.15332 0.297301 4.15332 0.664062V1.32812H3.32324C1.85859 1.32812 0.666992 2.51972 0.666992 3.98438V14.3438C0.666992 15.8084 1.85859 17 3.32324 17H15.0107C16.4754 17 17.667 15.8084 17.667 14.3438C17.667 13.977 17.3697 13.6797 17.0029 13.6797C16.6362 13.6797 16.3389 13.977 16.3389 14.3438C16.3389 15.0761 15.7431 15.6719 15.0107 15.6719H3.32324C2.59091 15.6719 1.99512 15.0761 1.99512 14.3438V3.98438C1.99512 3.25205 2.59091 2.65625 3.32324 2.65625H4.15332V3.32031C4.15332 3.68707 4.45062 3.98438 4.81738 3.98438C5.18414 3.98438 5.48145 3.68707 5.48145 3.32031V2.65625H8.46973V3.32031C8.46973 3.68707 8.76703 3.98438 9.13379 3.98438C9.50055 3.98438 9.79785 3.68707 9.79785 3.32031V2.65625H12.8193V3.32031C12.8193 3.68707 13.1166 3.98438 13.4834 3.98438C13.8502 3.98438 14.1475 3.68707 14.1475 3.32031V2.65625H15.0107C15.7431 2.65625 16.3389 3.25205 16.3389 3.98438V5.47852C16.3389 5.84528 16.6362 6.14258 17.0029 6.14258C17.3697 6.14258 17.667 5.84528 17.667 5.47852V3.98438C17.667 2.51972 16.4754 1.32812 15.0107 1.32812Z" fill="#999999"/>
</svg>
