<svg width="16" height="16" viewBox="0 0 16 16" fill="none" xmlns="http://www.w3.org/2000/svg">
<path d="M8.13252 0.804688C4.88252 0.804688 2.10752 2.90469 1.08252 5.80469H15.2325C14.1825 2.90469 11.4075 0.804688 8.13252 0.804688Z" fill="#F9F9F9"/>
<path d="M8.13252 15.8047C11.4075 15.8047 14.1825 13.7047 15.2075 10.8047H1.08252C2.10752 13.7297 4.88252 15.8047 8.13252 15.8047Z" fill="#F74254"/>
<path d="M1.08271 5.80469C0.807715 6.57969 0.657715 7.42969 0.657715 8.30469C0.657715 9.17969 0.807715 10.0297 1.08271 10.8047H15.2327C15.5077 10.0297 15.6577 9.17969 15.6577 8.30469C15.6577 7.42969 15.5077 6.57969 15.2327 5.80469H1.08271Z" fill="#359AE6"/>
</svg>
