<svg width="41" height="47" viewBox="0 0 41 47" fill="none" xmlns="http://www.w3.org/2000/svg">
<path d="M20.7578 16.6689C19.6152 16.6689 18.8027 17.1514 18.8027 17.8623V27.5361C18.8027 28.1454 19.6153 28.7548 20.7578 28.7548C21.8496 28.7548 22.7383 28.1454 22.7383 27.5361V17.8623C22.7383 17.1514 21.8496 16.6689 20.7578 16.6689Z" fill="#673048"/>
<path d="M20.7578 10.7021C19.5899 10.7021 18.6758 11.54 18.6758 12.5049C18.6758 13.4697 19.5899 14.333 20.7578 14.333C21.9005 14.333 22.8145 13.4697 22.8145 12.5049C22.8145 11.5401 21.9004 10.7021 20.7578 10.7021Z" fill="#673048"/>
<path d="M20.7578 0.248047C9.83263 0.248047 0.992188 9.084 0.992188 20.0023C0.992188 28.9175 6.86195 36.3202 14.7757 38.8343L19.2708 45.46C19.6052 45.9529 20.1621 46.248 20.7578 46.248C21.3535 46.248 21.9104 45.9529 22.2448 45.46L26.7399 38.8343C34.6572 36.3191 40.5234 28.9137 40.5234 20.0023C40.5234 9.07708 31.6759 0.248047 20.7578 0.248047ZM25.1283 35.5655C24.719 35.68 24.3637 35.9357 24.1252 36.2872L20.7578 41.2506L17.3906 36.2873C17.1519 35.9358 16.7966 35.68 16.3874 35.5656C9.65106 33.6821 4.58594 27.487 4.58594 20.0023C4.58594 11.0913 11.8406 3.8418 20.7578 3.8418C29.675 3.8418 36.9297 11.0913 36.9297 20.0023C36.9297 27.4944 31.8571 33.6841 25.1283 35.5655Z" fill="#673048"/>
</svg>
