<svg width="17" height="19" viewBox="0 0 17 19" fill="none" xmlns="http://www.w3.org/2000/svg">
<path d="M8.16789 6.78223C7.69593 6.78223 7.36035 6.9815 7.36035 7.27515V11.2708C7.36035 11.5225 7.69597 11.7742 8.16789 11.7742C8.61884 11.7742 8.98589 11.5225 8.98589 11.2708V7.27515C8.98589 6.9815 8.61884 6.78223 8.16789 6.78223Z" fill="#999999"/>
<path d="M8.16759 4.31836C7.68517 4.31836 7.30762 4.66444 7.30762 5.06296C7.30762 5.46148 7.68517 5.81806 8.16759 5.81806C8.63955 5.81806 9.0171 5.46148 9.0171 5.06296C9.0171 4.66448 8.63951 4.31836 8.16759 4.31836Z" fill="#999999"/>
<path d="M8.16699 0C3.65442 0 0.00292969 3.64963 0.00292969 8.15935C0.00292969 11.8418 2.4274 14.8994 5.69614 15.9378L7.55279 18.6745C7.69092 18.8781 7.92096 19 8.16699 19C8.41303 19 8.64307 18.8781 8.78119 18.6745L10.6378 15.9378C13.908 14.8989 16.3311 11.8402 16.3311 8.15935C16.3311 3.64678 12.6766 0 8.16699 0ZM9.97218 14.5877C9.80314 14.6349 9.65638 14.7405 9.55785 14.8858L8.16699 16.9358L6.77617 14.8858C6.67761 14.7406 6.53084 14.6349 6.36181 14.5877C3.57942 13.8097 1.4873 11.2509 1.4873 8.15935C1.4873 4.47873 4.48381 1.48438 8.16699 1.48438C11.8502 1.48438 14.8467 4.47873 14.8467 8.15935C14.8467 11.2539 12.7515 13.8106 9.97218 14.5877Z" fill="#999999"/>
</svg>
