<svg width="40" height="40" viewBox="0 0 40 40" fill="none" xmlns="http://www.w3.org/2000/svg">
<path d="M19.9998 24.2C22.3194 24.2 24.1998 22.3196 24.1998 20C24.1998 17.6805 22.3194 15.8 19.9998 15.8C17.6802 15.8 15.7998 17.6805 15.7998 20C15.7998 22.3196 17.6802 24.2 19.9998 24.2Z" fill="#BBBBBB"/>
<path d="M20 0C8.95432 0 0 8.95432 0 20C0 31.0457 8.95432 40 20 40C31.0457 40 40 31.0457 40 20C40 8.95432 31.0457 0 20 0ZM32.3566 25.0832C32.2606 26.9846 31.7263 28.8597 30.3406 30.2306C28.9415 31.6146 27.0576 32.1303 25.1378 32.2254H14.8622C12.9422 32.1303 11.0586 31.615 9.65944 30.2306C8.27368 28.8597 7.73944 26.9846 7.64344 25.0832V14.9168C7.73944 13.0154 8.27376 11.1403 9.65944 9.76928C11.0586 8.38528 12.9425 7.8696 14.8622 7.77464H25.1378C27.0578 7.8696 28.9414 8.38504 30.3406 9.76928C31.7263 11.1403 32.2606 13.0154 32.3566 14.9168L32.3566 25.0832Z" fill="#BBBBBB"/>
<path d="M25.0076 10.091C22.5047 10.0224 17.4951 10.0224 14.9922 10.091C13.6897 10.1268 12.2132 10.451 11.2852 11.4422C10.3209 12.4726 9.95646 13.7174 9.9195 15.1099C9.85454 17.5541 9.9195 24.8901 9.9195 24.8901C9.96182 26.2825 10.3209 27.5274 11.2852 28.5577C12.2132 29.5493 13.6897 29.8732 14.9922 29.9089C17.4951 29.9776 22.5047 29.9776 25.0076 29.9089C26.3101 29.8732 27.7866 29.5489 28.7146 28.5577C29.6789 27.5274 30.0433 26.2826 30.0803 24.8901V15.1099C30.0433 13.7174 29.6789 12.4726 28.7146 11.4422C27.7863 10.4507 26.3097 10.1268 25.0076 10.091ZM19.9996 26.51C18.712 26.51 17.4534 26.1282 16.3828 25.4129C15.3123 24.6975 14.4778 23.6808 13.9851 22.4913C13.4924 21.3017 13.3635 19.9928 13.6147 18.73C13.8659 17.4671 14.4859 16.3072 15.3963 15.3967C16.3068 14.4863 17.4667 13.8663 18.7295 13.6151C19.9924 13.3639 21.3013 13.4928 22.4908 13.9855C23.6804 14.4783 24.6971 15.3127 25.4124 16.3832C26.1278 17.4538 26.5096 18.7124 26.5096 20C26.5096 21.7266 25.8237 23.3824 24.6028 24.6033C23.382 25.8241 21.7261 26.51 19.9996 26.51ZM26.5373 14.8338C26.2798 14.8337 26.0281 14.7573 25.814 14.6142C25.5999 14.4711 25.4331 14.2677 25.3346 14.0298C25.2361 13.7919 25.2104 13.5301 25.2606 13.2775C25.3109 13.025 25.4349 12.793 25.617 12.611C25.7991 12.4289 26.0311 12.305 26.2837 12.2547C26.5362 12.2045 26.798 12.2303 27.0359 12.3289C27.2738 12.4274 27.4771 12.5943 27.6202 12.8084C27.7632 13.0225 27.8396 13.2743 27.8396 13.5318C27.8396 13.7028 27.8059 13.8721 27.7404 14.0301C27.675 14.1881 27.5791 14.3316 27.4581 14.4525C27.3372 14.5734 27.1936 14.6693 27.0356 14.7347C26.8776 14.8001 26.7083 14.8338 26.5373 14.8338Z" fill="#BBBBBB"/>
</svg>
