<svg width="30" height="31" viewBox="0 0 30 31" fill="none" xmlns="http://www.w3.org/2000/svg">
<rect x="30" y="30.1729" width="30" height="30" rx="15" transform="rotate(-180 30 30.1729)" fill="#DCB598"/>
<path d="M18.4456 11.448C18.6184 11.2835 18.8483 11.1926 19.0869 11.1944C19.3255 11.1962 19.5541 11.2906 19.7244 11.4577C19.8947 11.6248 19.9934 11.8515 19.9997 12.0901C20.006 12.3286 19.9194 12.5602 19.7582 12.7361L14.8636 18.8574C14.7794 18.948 14.6778 19.0208 14.5649 19.0713C14.452 19.1218 14.33 19.149 14.2064 19.1513C14.0827 19.1536 13.9598 19.1309 13.8451 19.0846C13.7304 19.0383 13.6262 18.9694 13.5387 18.8819L10.2928 15.636C10.2024 15.5518 10.1299 15.4502 10.0796 15.3374C10.0294 15.2245 10.0023 15.1027 10.0001 14.9792C9.99796 14.8556 10.0207 14.7329 10.067 14.6183C10.1132 14.5038 10.1821 14.3997 10.2695 14.3124C10.3568 14.225 10.4609 14.1561 10.5755 14.1098C10.69 14.0636 10.8127 14.0408 10.9363 14.043C11.0598 14.0452 11.1816 14.0722 11.2945 14.1225C11.4073 14.1728 11.5089 14.2453 11.5931 14.3357L14.1619 16.9032L18.4223 11.475C18.4299 11.4656 18.4381 11.4566 18.4468 11.448H18.4456Z" fill="white"/>
</svg>
