<svg width="18" height="21" viewBox="0 0 18 21" fill="none" xmlns="http://www.w3.org/2000/svg">
<path d="M17.1401 5.51136L17.1398 5.4923C17.1303 4.99369 17.1214 4.52274 17.1214 4.06963C17.1214 3.38323 16.563 2.82482 15.8766 2.82482C13.2207 2.82482 11.2051 2.06761 9.53305 0.441879C9.04643 -0.0313817 8.28398 -0.0314207 7.7974 0.44184C6.12546 2.06761 4.10997 2.82482 1.45452 2.82482C0.768126 2.82482 0.209719 3.38323 0.209719 4.06963C0.209719 4.53242 0.200619 5.00807 0.190972 5.51175C0.146055 7.86306 0.0901641 10.7893 1.07219 13.4456C1.61216 14.9062 2.42975 16.1755 3.50228 17.2182C4.7238 18.4058 6.32372 19.3479 8.25742 20.0182C8.38893 20.0638 8.5261 20.0869 8.66519 20.0869C8.80443 20.0869 8.94167 20.0638 9.07287 20.0182C11.0068 19.3479 12.6069 18.4058 13.8285 17.2181C14.9011 16.1753 15.7188 14.906 16.2588 13.4454C17.2409 10.789 17.1851 7.86267 17.1401 5.51136ZM15.1598 13.0391C14.1241 15.8401 12.0075 17.7609 8.68874 18.9112C8.67358 18.9165 8.65695 18.9166 8.64124 18.9111C5.32303 17.761 3.20665 15.8403 2.17115 13.0393C1.26588 10.5905 1.31716 7.90423 1.36243 5.53413C1.37219 5.02478 1.38141 4.54367 1.38141 4.06963C1.38141 4.02936 1.41418 3.99655 1.45449 3.99655C4.43454 3.99655 6.70961 3.13396 8.61425 1.28185C8.62851 1.26799 8.64683 1.26103 8.66515 1.26103C8.68347 1.26103 8.70182 1.26803 8.71612 1.28189C10.6209 3.13396 12.8961 3.99655 15.8765 3.99655C15.9168 3.99655 15.9496 4.02936 15.9496 4.06963C15.9496 4.53387 15.9586 5.01021 15.9683 5.51453L15.9686 5.53366V5.5337C16.0139 7.90384 16.0652 10.5902 15.1598 13.0391Z" fill="#999999"/>
<path d="M12.3049 8.13723H10.4198V6.25188C10.4198 5.92833 10.1574 5.66602 9.8339 5.66602H7.49567C7.17212 5.66602 6.90981 5.92833 6.90981 6.25188V8.13723H5.02434C4.70079 8.13723 4.43848 8.39954 4.43848 8.72309V11.0613C4.43848 11.3849 4.70079 11.6472 5.02434 11.6472H6.90981V13.5325C6.90981 13.856 7.17212 14.1184 7.49567 14.1184H9.8339C10.1574 14.1184 10.4198 13.856 10.4198 13.5325V11.6472H12.3049C12.6285 11.6472 12.8908 11.3849 12.8908 11.0613V8.72309C12.8907 8.3995 12.6284 8.13723 12.3049 8.13723ZM11.719 10.4755H9.8339C9.51034 10.4755 9.24803 10.7378 9.24803 11.0613V12.9466H8.08154V11.0613C8.08154 10.7378 7.81923 10.4755 7.49567 10.4755H5.61021V9.30896H7.49567C7.81923 9.30896 8.08154 9.04665 8.08154 8.72309V6.83774H9.24803V8.72309C9.24803 9.04665 9.51034 9.30896 9.8339 9.30896H11.7191V10.4755H11.719Z" fill="#999999"/>
</svg>
