<svg width="20" height="20" viewBox="0 0 20 20" fill="none" xmlns="http://www.w3.org/2000/svg">
<path d="M15.3693 19.9602C11.2947 19.9549 7.38854 18.334 4.50738 15.4528C1.62623 12.5717 0.00528135 8.66549 0 4.59093C0 3.37337 0.483674 2.20568 1.34462 1.34473C2.20556 0.483788 3.37326 0.000114067 4.59082 0.000114067C4.84864 -0.00184981 5.10604 0.0215495 5.35928 0.0699743C5.6041 0.106202 5.84478 0.166371 6.07784 0.249615C6.24176 0.307129 6.38783 0.406435 6.5016 0.537711C6.61538 0.668987 6.69291 0.827687 6.72655 0.998118L8.09381 6.98614C8.13066 7.14868 8.12623 7.31786 8.0809 7.47824C8.03557 7.63862 7.95081 7.7851 7.83433 7.9043C7.70459 8.04402 7.69461 8.054 6.46706 8.69273C7.45009 10.8493 9.17485 12.5811 11.3273 13.573C11.976 12.3354 11.986 12.3255 12.1257 12.1957C12.245 12.0792 12.3914 11.9945 12.5518 11.9491C12.7122 11.9038 12.8814 11.8994 13.0439 11.9362L19.0319 13.3035C19.1969 13.3418 19.3494 13.4214 19.4751 13.5349C19.6008 13.6484 19.6956 13.792 19.7505 13.9522C19.8347 14.1891 19.8982 14.4329 19.9401 14.6807C19.9803 14.9316 20.0003 15.1852 20 15.4392C19.9816 16.6516 19.4843 17.8074 18.6167 18.6545C17.7491 19.5015 16.5817 19.9709 15.3693 19.9602ZM4.59082 1.99612C3.90344 1.99875 3.24497 2.27298 2.75891 2.75903C2.27286 3.24508 1.99864 3.90355 1.99601 4.59093C1.99865 8.13693 3.40846 11.5369 5.91586 14.0443C8.42326 16.5517 11.8233 17.9615 15.3693 17.9642C16.0566 17.9616 16.7151 17.6873 17.2012 17.2013C17.6872 16.7152 17.9614 16.0567 17.9641 15.3694V15.04L13.3333 13.9722L13.0439 14.5211C12.5948 15.3893 12.2655 16.0181 11.4271 15.6788C9.77333 15.0868 8.27215 14.1339 7.03267 12.8892C5.79318 11.6446 4.84653 10.1394 4.26148 8.48315C3.90219 7.7047 4.58084 7.34542 5.43912 6.89632L5.98802 6.62686L4.92016 1.99612H4.59082Z" fill="white"/>
</svg>
