<svg width="21" height="21" viewBox="0 0 21 21" fill="none" xmlns="http://www.w3.org/2000/svg">
<g clip-path="url(#clip0_121_18485)">
<path d="M20.0215 10.4854C20.0215 15.8368 15.6839 20.1729 10.334 20.1729C4.9841 20.1729 0.646484 15.8368 0.646484 10.4854C0.646484 5.13703 4.9841 0.797852 10.334 0.797852C15.6839 0.797852 20.0215 5.13703 20.0215 10.4854ZM10.5939 4.00098C8.46516 4.00098 7.10742 4.89773 6.04125 6.49152C5.90313 6.69801 5.94934 6.97648 6.1473 7.1266L7.50273 8.15434C7.70605 8.30852 7.99574 8.27184 8.15371 8.07144C8.85152 7.18637 9.33 6.67312 10.3921 6.67312C11.1901 6.67312 12.1772 7.18672 12.1772 7.96055C12.1772 8.54555 11.6943 8.84598 10.9063 9.28773C9.98742 9.80285 8.77148 10.444 8.77148 12.0479V12.2041C8.77148 12.463 8.98137 12.6729 9.24023 12.6729H11.4277C11.6866 12.6729 11.8965 12.463 11.8965 12.2041V12.152C11.8965 11.0402 15.1459 10.9939 15.1459 7.98535C15.1459 5.71965 12.7957 4.00098 10.5939 4.00098ZM10.334 13.6885C9.34316 13.6885 8.53711 14.4945 8.53711 15.4854C8.53711 16.4761 9.34316 17.2822 10.334 17.2822C11.3248 17.2822 12.1309 16.4761 12.1309 15.4854C12.1309 14.4945 11.3248 13.6885 10.334 13.6885Z" fill="#DCB598"/>
</g>
<defs>
<clipPath id="clip0_121_18485">
<rect width="20" height="20" fill="white" transform="translate(0.333984 0.485352)"/>
</clipPath>
</defs>
</svg>
