<svg width="19" height="18" viewBox="0 0 19 18" fill="none" xmlns="http://www.w3.org/2000/svg">
<path d="M16.7834 13.3832C16.4718 13.1514 16.0313 13.2161 15.7996 13.5276C15.6721 13.699 15.5357 13.867 15.3941 14.0272C15.1369 14.3181 15.1643 14.7625 15.4552 15.0197C15.589 15.1379 15.7551 15.196 15.9206 15.196C16.1151 15.196 16.3087 15.1158 16.4477 14.9586C16.6153 14.7689 16.7769 14.5699 16.9278 14.3669C17.1596 14.0554 17.095 13.6149 16.7834 13.3832Z" fill="#999999"/>
<path d="M17.9602 10.0856C17.581 10.003 17.2062 10.2436 17.1236 10.623C17.0781 10.8318 17.0232 11.0409 16.9602 11.2446C16.8456 11.6157 17.0534 12.0094 17.4244 12.124C17.4936 12.1453 17.5635 12.1555 17.6322 12.1555C17.9325 12.1555 18.2105 11.9616 18.3038 11.6597C18.3785 11.4179 18.4437 11.1698 18.4977 10.9221C18.5802 10.5427 18.3396 10.1682 17.9602 10.0856Z" fill="#999999"/>
<path d="M13.3975 15.6352C13.2109 15.7394 13.0176 15.8368 12.8231 15.9247C12.4692 16.0845 12.3118 16.5009 12.4717 16.8549C12.5891 17.1149 12.845 17.2688 13.1129 17.2688C13.2096 17.2688 13.308 17.2487 13.4019 17.2063C13.6326 17.1021 13.8617 16.9866 14.0831 16.863C14.4222 16.6737 14.5436 16.2454 14.3542 15.9063C14.165 15.5673 13.7366 15.4459 13.3975 15.6352Z" fill="#999999"/>
<path d="M8.96296 3.375V8.70877L6.38464 11.2871C6.11007 11.5617 6.11007 12.0068 6.38464 12.2814C6.52196 12.4187 6.70185 12.4874 6.88185 12.4874C7.06178 12.4874 7.24175 12.4187 7.37907 12.2814L10.1633 9.49718C10.2951 9.36534 10.3692 9.18647 10.3692 9V3.375C10.3692 2.98666 10.0544 2.67188 9.66609 2.67188C9.27775 2.67188 8.96296 2.98666 8.96296 3.375Z" fill="#999999"/>
<path d="M17.9639 1.51172C17.5755 1.51172 17.2607 1.82651 17.2607 2.21484V4.16728C15.6241 1.60059 12.7661 0 9.66699 0C7.26301 0 5.00292 0.936176 3.30301 2.63602C1.60317 4.33593 0.666992 6.59602 0.666992 9C0.666992 11.404 1.60317 13.6641 3.30301 15.364C5.00292 17.0638 7.26301 18 9.66699 18C9.67293 18 9.67866 17.9993 9.68457 17.9991C9.69048 17.9993 9.69621 18 9.70215 18C9.95555 18 10.2115 17.9893 10.4628 17.9683C10.8498 17.9359 11.1372 17.5959 11.1048 17.2089C11.0724 16.822 10.7329 16.5344 10.3455 16.567C10.133 16.5847 9.91657 16.5938 9.70215 16.5938C9.69621 16.5938 9.69048 16.5945 9.68457 16.5946C9.67866 16.5945 9.67293 16.5938 9.66699 16.5938C5.47978 16.5938 2.07324 13.1872 2.07324 9C2.07324 4.81279 5.47978 1.40625 9.66699 1.40625C12.3655 1.40625 14.8475 2.8446 16.2038 5.13281H14.2705C13.8821 5.13281 13.5673 5.4476 13.5673 5.83594C13.5673 6.22427 13.8821 6.53906 14.2705 6.53906H16.417C16.8452 6.53906 17.2458 6.41872 17.5869 6.21025C17.6088 6.19773 17.6299 6.18427 17.65 6.16975C18.262 5.76717 18.667 5.0747 18.667 4.28906V2.21484C18.667 1.82651 18.3522 1.51172 17.9639 1.51172Z" fill="#999999"/>
</svg>
