<svg width="18" height="16" viewBox="0 0 18 16" fill="none" xmlns="http://www.w3.org/2000/svg">
<path d="M16.0786 1.77016C15.6606 1.3521 15.1642 1.02052 14.6179 0.794366C14.0717 0.568214 13.4862 0.451927 12.895 0.452149C12.3037 0.452371 11.7183 0.569098 11.1722 0.79566C10.6261 1.02222 10.13 1.35418 9.71228 1.77255L9.16697 2.32451L8.6262 1.77375L8.62268 1.77023C8.20482 1.35237 7.70874 1.0209 7.16277 0.794747C6.61681 0.568599 6.03164 0.452202 5.44069 0.452202C4.84974 0.452202 4.26457 0.568599 3.71861 0.794747C3.17264 1.0209 2.67656 1.35237 2.2587 1.77023L2.01577 2.01316C1.17186 2.85708 0.697754 4.00167 0.697754 5.19514C0.697754 6.38861 1.17186 7.5332 2.01577 8.37711L8.42732 14.7886L9.15136 15.5472L9.16862 15.5299L9.18736 15.5486L9.86574 14.8329L16.3215 8.37701C17.1642 7.53242 17.6374 6.38808 17.6374 5.19503C17.6374 4.00198 17.1642 2.85764 16.3215 2.01306L16.0786 1.77016ZM15.5259 7.58153L9.16862 13.9389L2.81121 7.58153C2.17828 6.94859 1.82271 6.09015 1.82271 5.19505C1.82271 4.29995 2.17828 3.44151 2.81121 2.80857L3.05418 2.56564C3.6868 1.93302 4.54472 1.57747 5.43939 1.57714C6.33405 1.5768 7.19224 1.93171 7.82534 2.56385L9.16454 3.92746L10.5101 2.56564C10.8235 2.25224 11.1956 2.00364 11.605 1.83403C12.0145 1.66442 12.4534 1.57712 12.8966 1.57712C13.3398 1.57712 13.7787 1.66442 14.1882 1.83403C14.5976 2.00364 14.9697 2.25224 15.2831 2.56564L15.526 2.80854C16.158 3.44199 16.5129 4.30026 16.5129 5.19506C16.5129 6.08986 16.1579 6.94811 15.5259 7.58153Z" fill="#626262"/>
</svg>
